# Blender v2.76 (sub 0) OBJ File: 'Schreibtisch.blend'
# www.blender.org
mtllib Schreibtisch_neu.mtl
o Schrank_Cube
v 3.056129 2.488046 -1.526578
v 3.056129 2.488046 1.526578
v -3.056130 2.488046 1.526578
v -3.056128 2.488046 -1.526579
v 3.056131 2.765613 -1.526577
v 3.056127 2.765613 1.526579
v -3.056130 2.765613 1.526577
v -3.056129 2.765613 -1.526578
v -2.823370 2.488046 -1.526579
v -2.828951 2.488046 1.526578
v -2.823370 2.765613 -1.526578
v -2.823372 2.765613 1.526577
v 2.787095 2.488046 -1.526578
v 2.787095 2.488046 1.526578
v 2.787096 2.765613 -1.526577
v 2.787093 2.765613 1.526579
v 3.056129 2.488046 -1.311090
v -3.056128 2.488046 -1.295859
v 3.056130 2.765613 -1.308433
v -3.056129 2.765613 -1.308434
v -2.823371 2.765613 -1.308434
v -2.828950 2.488046 -1.314893
v 2.787095 2.488046 -1.314892
v 2.787096 2.765613 -1.308433
v -2.823370 0.012276 -1.526579
v -3.056128 0.012276 -1.526579
v -2.828951 0.012276 1.526578
v -3.056130 0.012276 1.526578
v -3.056128 0.012276 -1.331452
v -2.828950 0.012276 -1.331452
v 3.056129 -0.013038 -1.331452
v 3.056129 -0.013038 1.526578
v 3.056129 -0.013038 -1.526578
v 2.787095 -0.013038 -1.526578
v 2.787095 -0.013038 1.526578
v 2.787095 -0.013038 -1.331452
v -2.827857 2.473735 1.483146
v -2.827857 2.473735 -1.178026
v -0.827858 2.473735 1.483146
v -0.827858 2.473735 -1.178026
v -2.827857 1.802315 1.483146
v -2.827857 1.802315 -1.178026
v -0.827858 1.802315 -1.178026
v -0.827858 1.802315 1.483146
v -0.879328 2.473735 -1.178026
v -0.879328 2.473735 1.483146
v -0.879328 1.802315 -1.178026
v -0.879328 1.802315 1.483146
v -2.783235 2.473735 1.483146
v -2.783235 1.802315 -1.178026
v -2.783235 2.473735 -1.178026
v -2.783235 1.802315 1.483146
v -2.827857 1.846103 1.483146
v -2.827857 1.846103 -1.178026
v -0.827858 1.846103 -1.178026
v -0.827858 1.846103 1.483146
v -0.879328 1.846103 1.483146
v -0.879328 1.846103 -1.178026
v -2.783235 1.846103 -1.178026
v -2.783235 1.846103 1.483146
v -2.827857 2.415350 1.483146
v -2.827857 2.415350 -1.178026
v -0.827858 2.415350 -1.178026
v -0.827858 2.415350 1.483146
v -0.879328 2.415350 1.483146
v -0.879328 2.415350 -1.178026
v -2.783235 2.415350 -1.178026
v -2.783235 2.415350 1.483146
vt 0.119724 0.577843
vt 0.169077 0.581057
vt 0.176129 0.992948
vt 0.125417 0.991440
vt 0.170487 0.516988
vt 0.170445 0.519141
vt 0.115235 0.519408
vt 0.115318 0.517146
vt 0.170726 0.399668
vt 0.172791 0.464687
vt 0.117956 0.459740
vt 0.123097 0.400358
vt 0.055791 0.514593
vt 0.055695 0.516806
vt 0.174665 0.519232
vt 0.174634 0.581473
vt 0.174468 0.516941
vt 0.207806 0.510260
vt 0.208117 0.514105
vt 0.176697 0.467364
vt 0.207287 0.469738
vt 0.058266 0.459626
vt 0.117823 0.462352
vt 0.172688 0.467149
vt 0.002590 0.457120
vt 0.000116 0.512087
vt 0.058386 0.457004
vt 0.176908 0.464812
vt 0.207551 0.465612
vt 0.175915 0.399564
vt 0.167689 0.003241
vt 0.172690 0.003296
vt 0.719165 0.478438
vt 0.714664 0.502493
vt 0.513607 0.503561
vt 0.516295 0.472396
vt 0.069354 0.574592
vt 0.112508 0.577336
vt 0.118202 0.990933
vt 0.074795 0.988173
vt 0.176000 0.995288
vt 0.125339 0.993450
vt 0.180996 0.996193
vt 0.181493 0.993209
vt 0.511453 0.503344
vt 0.511516 0.508627
vt 0.119138 0.002397
vt 0.119159 0.000116
vt 0.167676 0.000568
vt 0.172481 0.000116
vt 0.514194 0.466858
vt 0.514138 0.472209
vt 0.116151 0.400383
vt 0.075048 0.400792
vt 0.070850 0.002834
vt 0.112192 0.002422
vt 0.746299 0.200605
vt 0.745489 0.137596
vt 0.746433 0.137574
vt 0.747397 0.200583
vt 0.758707 0.326225
vt 0.719396 0.326225
vt 0.719396 0.319109
vt 0.758707 0.319109
vt 0.729560 0.018850
vt 0.728529 0.018856
vt 0.727043 0.002892
vt 0.727895 0.002813
vt 0.758707 0.435554
vt 0.719396 0.435554
vt 0.719396 0.428439
vt 0.758707 0.428439
vt 0.748627 0.295150
vt 0.749725 0.295128
vt 0.750200 0.318856
vt 0.749102 0.318878
vt 0.727160 0.290788
vt 0.728245 0.290734
vt 0.729264 0.311059
vt 0.728179 0.311113
vt 0.750216 0.017355
vt 0.753856 0.000116
vt 0.722269 0.201548
vt 0.719396 0.139378
vt 0.720438 0.139421
vt 0.723354 0.201493
vt 0.751193 0.017469
vt 0.754655 0.000273
vt 0.758707 0.644545
vt 0.758707 0.630496
vt 0.765822 0.630496
vt 0.765822 0.644545
vt 0.745609 0.113057
vt 0.744588 0.113038
vt 0.719396 0.630265
vt 0.719396 0.537768
vt 0.733445 0.537768
vt 0.733445 0.630265
vt 0.723627 0.228646
vt 0.724712 0.228592
vt 0.746931 0.232242
vt 0.748029 0.232221
vt 0.758707 0.528050
vt 0.719396 0.528050
vt 0.724229 0.114900
vt 0.723058 0.114785
vt 0.758707 0.418721
vt 0.719396 0.418721
vt 0.758707 0.428208
vt 0.719396 0.428208
vt 0.758707 0.537537
vt 0.719396 0.537537
vt 0.746899 0.216099
vt 0.723954 0.216987
vt 0.805134 0.630496
vt 0.805134 0.644545
vt 0.749385 0.280304
vt 0.726440 0.281193
vt 0.719396 0.630496
vt 0.719396 0.644545
vt 0.720195 0.232963
vt 0.721891 0.295871
vt 0.751123 0.227090
vt 0.754655 0.289232
vn -1.000000 0.000000 -0.000000
vn 0.000000 1.000000 0.000000
vn 1.000000 0.000000 0.000000
vn -0.000000 0.000000 1.000000
vn 0.000000 0.000000 -1.000000
vn 0.000000 -1.000000 -0.000000
vn -0.000000 -0.006700 1.000000
vn -0.004500 -1.000000 -0.000100
usemtl Material
s off
f 3/1/1 18/2/1 29/3/1 28/4/1
f 21/5/2 20/6/2 7/7/2 12/8/2
f 17/9/3 19/10/3 6/11/3 2/12/3
f 10/13/4 12/8/4 7/7/4 3/14/4
f 18/2/1 20/6/1 8/15/1 4/16/1
f 11/17/5 9/18/5 4/19/5 8/15/5
f 15/20/5 13/21/5 9/18/5 11/17/5
f 14/22/4 16/23/4 12/8/4 10/13/4
f 24/24/2 21/5/2 12/8/2 16/23/2
f 23/25/6 14/22/6 10/13/6 22/26/6
f 19/10/2 24/24/2 16/23/2 6/11/2
f 2/27/4 6/11/4 16/23/4 14/22/4
f 5/28/5 1/29/5 13/21/5 15/20/5
f 5/28/2 15/20/2 24/24/2 19/10/2
f 1/30/3 17/9/3 31/31/3 33/32/3
f 23/33/7 22/34/7 30/35/7 36/36/7
f 15/20/2 11/17/2 21/5/2 24/24/2
f 3/1/1 7/7/1 20/6/1 18/2/1
f 1/30/3 5/28/3 19/10/3 17/9/3
f 11/17/2 8/15/2 20/6/2 21/5/2
f 22/37/3 10/38/3 27/39/3 30/40/3
f 30/41/6 27/42/6 28/4/6 29/3/6
f 25/43/6 30/41/6 29/3/6 26/44/6
f 18/2/1 4/16/1 26/44/1 29/3/1
f 10/38/4 3/1/4 28/4/4 27/39/4
f 4/19/5 9/18/5 25/45/5 26/46/5
f 31/31/6 32/47/6 35/48/6 36/49/6
f 33/32/6 31/31/6 36/49/6 34/50/6
f 17/9/3 2/12/3 32/47/3 31/31/3
f 13/21/5 1/29/5 33/51/5 34/52/5
f 14/53/1 23/54/1 36/55/1 35/56/1
f 2/12/4 14/53/4 35/56/4 32/47/4
f 34/52/8 36/36/8 30/35/8 25/45/8
f 9/18/5 13/21/5 34/52/5 25/45/5
f 49/57/2 51/58/2 38/59/2 37/60/2
f 53/61/1 54/62/1 42/63/1 41/64/1
f 58/65/5 55/66/5 43/67/5 47/68/5
f 55/69/3 56/70/3 44/71/3 43/72/3
f 60/73/4 53/74/4 41/75/4 52/76/4
f 56/77/4 57/78/4 48/79/4 44/80/4
f 59/81/5 58/65/5 47/68/5 50/82/5
f 39/83/2 40/84/2 45/85/2 46/86/2
f 54/87/5 59/81/5 50/82/5 42/88/5
f 57/89/4 60/90/4 52/91/4 48/92/4
f 46/86/2 45/85/2 51/58/2 49/57/2
f 62/93/5 67/94/5 59/81/5 54/87/5
f 67/95/4 59/96/4 58/97/4 66/98/4
f 64/99/4 65/100/4 57/78/4 56/77/4
f 68/101/4 61/102/4 53/74/4 60/73/4
f 63/103/3 64/104/3 56/70/3 55/69/3
f 66/105/5 63/106/5 55/66/5 58/65/5
f 61/107/1 62/108/1 54/62/1 53/61/1
f 37/109/1 38/110/1 62/108/1 61/107/1
f 45/85/5 40/84/5 63/106/5 66/105/5
f 40/111/3 39/112/3 64/104/3 63/103/3
f 49/57/4 37/60/4 61/102/4 68/101/4
f 39/83/4 46/86/4 65/100/4 64/99/4
f 51/58/5 45/85/5 66/105/5 67/94/5
f 38/59/5 51/58/5 67/94/5 62/93/5
f 46/86/4 49/57/4 68/113/4 65/114/4
f 48/92/6 52/91/6 50/115/6 47/116/6
f 67/117/6 66/118/6 65/114/6 68/113/6
f 59/119/2 60/90/2 57/89/2 58/120/2
f 67/121/3 68/101/3 60/73/3 59/122/3
f 66/123/1 58/124/1 57/78/1 65/100/1
