# Blender v2.76 (sub 0) OBJ File: 'Schreibtisch.blend'
# www.blender.org
mtllib Schublade_unten.mtl
o Schublade_unten_Cube.003
v -5.810077 1.144381 1.561254
v -7.713984 1.144381 1.561254
v -5.810077 0.457229 1.561254
v -7.713984 0.457229 1.561254
v -7.713984 1.144381 -1.331935
v -5.810077 1.144381 -1.331935
v -5.810077 0.457229 -1.331935
v -7.713984 0.457229 -1.331935
v -5.810077 0.457229 1.479526
v -7.713984 0.457229 1.479526
v -5.810077 1.144381 1.479526
v -7.713984 1.144381 1.479526
v -7.608211 1.144381 1.561254
v -7.608211 0.457229 1.561254
v -7.608211 1.144381 -1.331935
v -7.608211 0.457229 -1.331935
v -7.608211 1.144381 1.479526
v -7.608211 0.457229 1.479526
v -5.810077 0.457229 -1.233861
v -5.810077 1.144381 -1.233861
v -7.713984 0.457229 -1.233861
v -7.713984 1.144381 -1.233861
v -7.608211 1.144381 -1.233861
v -7.608211 0.457229 -1.233861
v -5.899984 1.144381 1.561254
v -5.899984 0.457229 1.561254
v -5.899984 1.144381 -1.331935
v -5.899984 0.457229 -1.331935
v -5.899984 1.144381 1.479526
v -5.899984 0.457229 1.479526
v -5.899984 1.144381 -1.233861
v -5.899984 0.457229 -1.233861
v -7.608211 0.593747 1.479526
v -7.608211 0.593747 -1.233861
v -5.899984 0.593747 1.479526
v -5.899984 0.593747 -1.233861
v -6.732842 0.923300 1.648562
v -6.752438 0.925230 1.648562
v -6.752438 0.962449 1.541396
v -6.752438 0.962449 1.738457
v -6.725581 0.959804 1.541396
v -6.725581 0.959804 1.738457
v -6.699756 0.951970 1.541396
v -6.699756 0.951970 1.738457
v -6.675955 0.939248 1.541396
v -6.675955 0.939248 1.738457
v -6.655094 0.922128 1.541396
v -6.655094 0.922128 1.738457
v -6.637973 0.901266 1.541396
v -6.637973 0.901266 1.738457
v -6.625252 0.877466 1.541396
v -6.625252 0.877466 1.738457
v -6.617418 0.851641 1.541396
v -6.617418 0.851641 1.738457
v -6.614772 0.824783 1.541396
v -6.614772 0.824783 1.738457
v -6.617418 0.797926 1.541396
v -6.617418 0.797926 1.738457
v -6.625252 0.772101 1.541396
v -6.625252 0.772101 1.738457
v -6.637973 0.748300 1.541396
v -6.637973 0.748300 1.738457
v -6.655094 0.727439 1.541396
v -6.655094 0.727439 1.738457
v -6.675955 0.710318 1.541396
v -6.675955 0.710318 1.738457
v -6.699756 0.697597 1.541396
v -6.699756 0.697597 1.738457
v -6.725581 0.689763 1.541396
v -6.725581 0.689763 1.738457
v -6.752438 0.687117 1.541396
v -6.752438 0.687117 1.738457
v -6.779295 0.689763 1.541396
v -6.779295 0.689763 1.738457
v -6.805120 0.697597 1.541396
v -6.805120 0.697597 1.738457
v -6.828921 0.710318 1.541396
v -6.828921 0.710318 1.738457
v -6.849782 0.727439 1.541396
v -6.849782 0.727439 1.738457
v -6.866903 0.748300 1.541396
v -6.866903 0.748300 1.738457
v -6.879625 0.772101 1.541396
v -6.879625 0.772101 1.738457
v -6.887459 0.797926 1.541396
v -6.887459 0.797926 1.738457
v -6.890104 0.824783 1.541396
v -6.890104 0.824783 1.738457
v -6.887459 0.851641 1.541396
v -6.887459 0.851641 1.738457
v -6.879625 0.877466 1.541396
v -6.879625 0.877466 1.738457
v -6.866903 0.901266 1.541396
v -6.866903 0.901266 1.738457
v -6.849782 0.922128 1.541396
v -6.849782 0.922128 1.738457
v -6.828921 0.939248 1.541396
v -6.828921 0.939248 1.738457
v -6.805120 0.951970 1.541396
v -6.805120 0.951970 1.738457
v -6.779295 0.959804 1.541396
v -6.779295 0.959804 1.738457
v -6.713999 0.917584 1.648562
v -6.696633 0.908302 1.648562
v -6.681411 0.895810 1.648562
v -6.668920 0.880589 1.648562
v -6.659637 0.863223 1.648562
v -6.653921 0.844379 1.648562
v -6.651991 0.824783 1.648562
v -6.653921 0.805187 1.648562
v -6.659637 0.786344 1.648562
v -6.668920 0.768978 1.648562
v -6.681411 0.753756 1.648562
v -6.696633 0.741264 1.648562
v -6.713999 0.731982 1.648562
v -6.732842 0.726266 1.648562
v -6.752438 0.724336 1.648562
v -6.772035 0.726266 1.648562
v -6.790877 0.731982 1.648562
v -6.808244 0.741265 1.648562
v -6.823465 0.753757 1.648562
v -6.835957 0.768978 1.648562
v -6.845239 0.786344 1.648562
v -6.850955 0.805187 1.648562
v -6.852885 0.824783 1.648562
v -6.850955 0.844380 1.648562
v -6.845239 0.863223 1.648562
v -6.835957 0.880589 1.648562
v -6.823465 0.895810 1.648562
v -6.808243 0.908302 1.648562
v -6.790877 0.917584 1.648562
v -6.772034 0.923300 1.648562
v -6.737568 0.899541 1.811764
v -6.752438 0.901006 1.811764
v -6.723269 0.895204 1.811764
v -6.710091 0.888160 1.811764
v -6.698541 0.878681 1.811764
v -6.689062 0.867130 1.811764
v -6.682018 0.853952 1.811764
v -6.677680 0.839654 1.811764
v -6.676216 0.824783 1.811764
v -6.677680 0.809913 1.811764
v -6.682018 0.795614 1.811764
v -6.689062 0.782436 1.811764
v -6.698541 0.770886 1.811764
v -6.710091 0.761407 1.811764
v -6.723269 0.754363 1.811764
v -6.737568 0.750026 1.811764
v -6.752438 0.748561 1.811764
v -6.767308 0.750026 1.811764
v -6.781607 0.754363 1.811764
v -6.794785 0.761407 1.811764
v -6.806335 0.770886 1.811764
v -6.815815 0.782436 1.811764
v -6.822858 0.795614 1.811764
v -6.827196 0.809913 1.811764
v -6.828660 0.824783 1.811764
v -6.827196 0.839654 1.811764
v -6.822858 0.853953 1.811764
v -6.815815 0.867130 1.811764
v -6.806335 0.878681 1.811764
v -6.794785 0.888160 1.811764
v -6.781607 0.895204 1.811764
v -6.767308 0.899541 1.811764
v -5.810077 1.144381 1.561254
v -7.713984 1.144381 1.561254
v -5.810077 0.457229 1.561254
v -7.713984 0.457229 1.561254
v -7.608211 1.144381 1.561254
v -7.608211 1.144381 1.479526
v -5.899984 1.144381 1.561254
v -5.899984 1.144381 1.479526
vt 0.464218 0.656908
vt 0.460709 0.656889
vt 0.460851 0.455435
vt 0.463395 0.455314
vt 0.462863 0.156879
vt 0.461537 0.348848
vt 0.459100 0.348750
vt 0.459521 0.156888
vt 0.490620 0.352621
vt 0.490281 0.348677
vt 0.492437 0.348556
vt 0.492435 0.352601
vt 0.733715 0.344636
vt 0.733783 0.348676
vt 0.220560 0.355953
vt 0.220482 0.352021
vt 0.459325 0.352762
vt 0.218561 0.356023
vt 0.218389 0.352108
vt 0.223184 0.457403
vt 0.223299 0.453888
vt 0.225380 0.453823
vt 0.225457 0.457477
vt 0.460981 0.451863
vt 0.495989 0.455136
vt 0.495715 0.451377
vt 0.735997 0.446176
vt 0.736047 0.449919
vt 0.493664 0.454956
vt 0.493829 0.451500
vt 0.463121 0.451895
vt 0.487062 0.656990
vt 0.487055 0.659178
vt 0.464211 0.659096
vt 0.484598 0.154381
vt 0.484598 0.156879
vt 0.462863 0.154381
vt 0.461384 0.352677
vt 0.004845 0.464465
vt 0.000107 0.366600
vt 0.735549 0.348637
vt 0.737845 0.446131
vt 0.490587 0.657104
vt 0.487944 0.156781
vt 0.735548 0.344636
vt 0.738046 0.449818
vt 0.486479 0.821332
vt 0.486221 0.893975
vt 0.463377 0.893894
vt 0.463635 0.821250
vt 0.462863 0.000107
vt 0.484597 0.000107
vt 0.953174 0.343511
vt 0.955470 0.441005
vt 0.991543 0.034888
vt 0.989344 0.047069
vt 0.984302 0.052702
vt 0.985986 0.045093
vt 0.980378 0.122753
vt 0.981486 0.106244
vt 0.982454 0.104245
vt 0.981629 0.119410
vt 0.980732 0.106936
vt 0.980626 0.116951
vt 0.980376 0.116284
vt 0.980146 0.114117
vt 0.980047 0.097281
vt 0.979773 0.095575
vt 0.983634 0.100981
vt 0.983495 0.114205
vt 0.973257 0.058442
vt 0.976919 0.051510
vt 0.980561 0.049326
vt 0.978538 0.053171
vt 0.984993 0.096428
vt 0.985769 0.107550
vt 0.980136 0.110377
vt 0.984792 0.076090
vt 0.983158 0.088369
vt 0.980989 0.076944
vt 0.981716 0.069181
vt 0.986498 0.090313
vt 0.988303 0.099694
vt 0.980587 0.104972
vt 0.997417 0.007483
vt 0.996541 0.009476
vt 0.990534 0.027009
vt 0.991318 0.025475
vt 0.988054 0.082363
vt 0.991161 0.089989
vt 0.981641 0.097777
vt 0.984571 0.037107
vt 0.988293 0.030200
vt 0.986853 0.037518
vt 0.984801 0.041347
vt 0.989670 0.072881
vt 0.994114 0.077601
vt 0.980876 0.116149
vt 0.981107 0.113895
vt 0.981136 0.096658
vt 0.980874 0.097775
vt 0.991333 0.062246
vt 0.996714 0.063089
vt 0.979762 0.092800
vt 0.980051 0.088868
vt 0.993003 0.051614
vt 0.998676 0.048482
vt 0.986787 0.061533
vt 0.994171 0.018312
vt 0.992976 0.025477
vt 0.987590 0.038584
vt 0.988743 0.033467
vt 0.994365 0.042098
vt 0.999649 0.035792
vt 0.994418 0.018177
vt 0.996298 0.013490
vt 0.991565 0.028325
vt 0.990391 0.030891
vt 0.995314 0.034059
vt 0.999893 0.025693
vt 0.980800 0.105172
vt 0.979971 0.098972
vt 0.980013 0.088494
vt 0.980754 0.091888
vt 0.995750 0.027783
vt 0.999893 0.017464
vt 0.982830 0.060913
vt 0.995849 0.023037
vt 0.999787 0.010464
vt 0.997850 0.007764
vt 0.997858 0.006924
vt 0.991934 0.024929
vt 0.992263 0.025268
vt 0.995728 0.019572
vt 0.999633 0.004967
vt 0.995392 0.013032
vt 0.980739 0.044305
vt 0.982677 0.045334
vt 0.995420 0.017374
vt 0.999489 0.001425
vt 0.980462 0.097992
vt 0.994915 0.016482
vt 0.999225 0.000107
vt 0.980521 0.083637
vt 0.994054 0.016855
vt 0.998350 0.001234
vt 0.989673 0.029642
vt 0.992712 0.018358
vt 0.996511 0.004323
vt 0.991690 0.023832
vt 0.988757 0.033990
vt 0.990940 0.020842
vt 0.993752 0.008979
vt 0.997383 0.009978
vt 0.981148 0.110215
vt 0.981121 0.094666
vt 0.988850 0.024150
vt 0.990407 0.014695
vt 0.986529 0.028157
vt 0.986892 0.020978
vt 0.983999 0.032801
vt 0.983368 0.027552
vt 0.992178 0.026420
vt 0.981297 0.037857
vt 0.979677 0.034500
vt 0.969894 0.064838
vt 0.976685 0.056720
vt 0.978501 0.043116
vt 0.975847 0.041706
vt 0.975708 0.048377
vt 0.972020 0.048912
vt 0.973025 0.053438
vt 0.968340 0.055842
vt 0.970556 0.058104
vt 0.964958 0.062235
vt 0.974468 0.100059
vt 0.976718 0.092975
vt 0.977420 0.097676
vt 0.975841 0.107227
vt 0.978327 0.101518
vt 0.977248 0.113746
vt 0.979227 0.104452
vt 0.978427 0.119059
vt 0.982786 0.097894
vt 0.982664 0.098363
vt 0.982387 0.097966
vt 0.981964 0.096717
vt 0.981413 0.094665
vt 0.979218 0.084612
vt 0.978400 0.080392
vt 0.977590 0.075996
vt 0.976820 0.071593
vt 0.976119 0.067352
vt 0.975513 0.063437
vt 0.975027 0.059996
vt 0.974678 0.057164
vt 0.974481 0.055048
vt 0.974443 0.053730
vt 0.974565 0.053261
vt 0.974842 0.053659
vt 0.975265 0.054907
vt 0.975816 0.056960
vt 0.976475 0.059736
vt 0.977216 0.063131
vt 0.978011 0.067012
vt 0.978829 0.071232
vt 0.979639 0.075628
vt 0.980409 0.080031
vt 0.981110 0.084272
vt 0.981716 0.088188
vt 0.982202 0.091628
vt 0.982551 0.094461
vt 0.982748 0.096576
vt 0.980033 0.106309
vt 0.979220 0.122585
vt 0.979708 0.123933
vt 0.977499 0.121310
vt 0.976876 0.120505
vt 0.975862 0.117928
vt 0.974495 0.113679
vt 0.972829 0.107921
vt 0.970927 0.100875
vt 0.968862 0.092812
vt 0.966714 0.084041
vt 0.964565 0.074901
vt 0.962498 0.065742
vt 0.960593 0.056916
vt 0.958922 0.048762
vt 0.957549 0.041594
vt 0.956529 0.035687
vt 0.955898 0.031268
vt 0.955683 0.028507
vt 0.955891 0.027510
vt 0.956514 0.028316
vt 0.957529 0.030892
vt 0.958895 0.035142
vt 0.960561 0.040900
vt 0.962464 0.047946
vt 0.964528 0.056009
vt 0.966676 0.064779
vt 0.968825 0.073920
vt 0.970892 0.083079
vt 0.972797 0.091905
vt 0.976861 0.113134
vt 0.977492 0.117553
vt 0.977707 0.120314
vt 0.956311 0.410475
vt 0.955689 0.553632
vt 0.958187 0.553686
vt 0.958809 0.410508
vt 0.956516 0.649345
vt 0.957349 0.553899
vt 0.959015 0.553914
vt 0.958182 0.649359
vt 0.955683 0.267313
vt 0.958182 0.267324
vt 0.955683 0.744790
vt 0.957349 0.744805
vt 0.955683 0.840236
vt 0.957349 0.840265
vt 0.956304 0.124146
vt 0.958803 0.124157
vn 0.000000 0.000000 1.000000
vn 0.000000 0.000000 -1.000000
vn 0.000000 -1.000000 0.000000
vn 1.000000 0.000000 0.000000
vn -1.000000 0.000000 0.000000
vn 0.000000 1.000000 0.000000
vn 0.734900 -0.222900 0.640500
vn 0.274400 0.904400 0.326700
vn 0.090600 0.920100 -0.381000
vn 0.222900 0.734900 0.640500
vn 0.445500 0.833500 0.326700
vn 0.268400 0.884800 -0.381000
vn -0.734900 0.222900 0.640500
vn 0.599600 0.730600 0.326700
vn 0.435800 0.815400 -0.381000
vn 0.734900 0.222900 0.640500
vn 0.730600 0.599600 0.326700
vn 0.586600 0.714700 -0.381000
vn 0.222900 -0.734900 0.640600
vn 0.833500 0.445500 0.326700
vn 0.714700 0.586500 -0.381000
vn -0.734900 -0.222900 0.640500
vn 0.904400 0.274400 0.326700
vn 0.815400 0.435800 -0.381000
vn -0.222900 0.734800 0.640500
vn 0.940600 0.092600 0.326700
vn 0.884800 0.268400 -0.381000
vn 0.487200 0.593600 0.640500
vn 0.940600 -0.092600 0.326700
vn 0.920100 0.090600 -0.381000
vn 0.593600 -0.487100 0.640600
vn 0.904400 -0.274400 0.326700
vn 0.920100 -0.090600 -0.381000
vn -0.487200 -0.593600 0.640600
vn 0.833500 -0.445500 0.326700
vn 0.884800 -0.268400 -0.381000
vn -0.593600 0.487200 0.640500
vn 0.730600 -0.599600 0.326700
vn 0.815400 -0.435800 -0.381000
vn 0.764200 -0.075300 0.640500
vn 0.599600 -0.730600 0.326700
vn 0.714700 -0.586600 -0.381000
vn -0.075300 -0.764200 0.640500
vn 0.445500 -0.833500 0.326700
vn 0.586600 -0.714700 -0.381000
vn -0.764200 0.075300 0.640500
vn 0.274400 -0.904400 0.326700
vn 0.435800 -0.815400 -0.381000
vn 0.075300 0.764200 0.640500
vn 0.092600 -0.940600 0.326700
vn 0.268400 -0.884800 -0.381000
vn 0.677200 0.362000 0.640500
vn -0.092600 -0.940600 0.326700
vn 0.090600 -0.920100 -0.381000
vn 0.362000 -0.677300 0.640500
vn -0.274400 -0.904400 0.326700
vn -0.090600 -0.920100 -0.381000
vn -0.677200 -0.362000 0.640600
vn -0.445500 -0.833500 0.326700
vn -0.268400 -0.884800 -0.381000
vn -0.362000 0.677300 0.640500
vn -0.599600 -0.730600 0.326700
vn -0.435800 -0.815400 -0.381000
vn 0.362000 0.677300 0.640500
vn -0.730600 -0.599600 0.326700
vn -0.586600 -0.714700 -0.381000
vn 0.677200 -0.362000 0.640500
vn -0.833500 -0.445500 0.326700
vn -0.714700 -0.586600 -0.381000
vn -0.362000 -0.677300 0.640500
vn -0.904400 -0.274400 0.326700
vn -0.815400 -0.435800 -0.381000
vn -0.677200 0.362000 0.640500
vn -0.940600 -0.092600 0.326700
vn -0.884800 -0.268400 -0.381000
vn 0.764200 0.075300 0.640500
vn -0.940600 0.092600 0.326700
vn -0.920100 -0.090600 -0.381000
vn 0.075300 -0.764200 0.640600
vn -0.904400 0.274400 0.326700
vn -0.920100 0.090600 -0.381000
vn -0.764200 -0.075300 0.640500
vn -0.833500 0.445500 0.326700
vn -0.884800 0.268400 -0.381000
vn 0.593600 0.487100 0.640600
vn -0.730600 0.599600 0.326700
vn -0.815400 0.435900 -0.381000
vn 0.487200 -0.593600 0.640500
vn -0.599600 0.730600 0.326700
vn -0.714700 0.586500 -0.381000
vn -0.593600 -0.487200 0.640500
vn -0.445500 0.833500 0.326700
vn -0.586600 0.714700 -0.381000
vn -0.274400 0.904400 0.326700
vn -0.435800 0.815400 -0.381000
vn -0.487200 0.593600 0.640500
vn -0.092600 0.940600 0.326700
vn -0.268400 0.884800 -0.381000
vn -0.222900 -0.734800 0.640600
vn 0.092600 0.940600 0.326700
vn -0.090600 0.920100 -0.381000
vn -0.075300 0.764200 0.640500
usemtl Material
s off
f 13/1/1 2/2/1 4/3/1 14/4/1
f 15/5/2 16/6/2 8/7/2 5/8/2
f 32/9/3 28/10/3 7/11/3 19/12/3
f 19/12/4 7/11/4 6/13/4 20/14/4
f 22/15/5 5/16/5 8/7/5 21/17/5
f 23/18/6 15/19/6 5/16/6 22/15/6
f 13/20/6 17/21/6 12/22/6 2/23/6
f 2/23/5 12/22/5 10/24/5 4/3/5
f 3/25/4 9/26/4 11/27/4 1/28/4
f 26/29/3 30/30/3 9/26/3 3/25/3
f 4/3/3 10/24/3 18/31/3 14/4/3
f 25/32/6 29/33/6 17/34/6 13/1/6
f 31/35/6 27/36/6 15/5/6 23/37/6
f 21/17/3 8/7/3 16/6/3 24/38/3
f 27/36/2 28/10/2 16/6/2 15/5/2
f 25/32/1 13/1/1 14/4/1 26/29/1
f 10/24/3 21/17/3 24/38/3 18/31/3
f 17/21/4 33/39/4 34/40/4 23/18/4
f 17/21/6 23/18/6 22/15/6 12/22/6
f 12/22/5 22/15/5 21/17/5 10/24/5
f 9/26/4 19/12/4 20/14/4 11/27/4
f 30/30/3 32/9/3 19/12/3 9/26/3
f 18/31/3 24/38/3 32/9/3 30/30/3
f 11/27/6 20/14/6 31/41/6 29/42/6
f 1/43/1 25/32/1 26/29/1 3/25/1
f 6/44/2 7/11/2 28/10/2 27/36/2
f 20/14/6 6/13/6 27/45/6 31/41/6
f 1/28/6 11/27/6 29/42/6 25/46/6
f 14/4/3 18/31/3 30/30/3 26/29/3
f 24/38/3 16/6/3 28/10/3 32/9/3
f 35/47/6 36/48/6 34/49/6 33/50/6
f 23/37/1 34/51/1 36/52/1 31/35/1
f 29/33/2 35/47/2 33/50/2 17/34/2
f 31/41/5 36/53/5 35/54/5 29/42/5
f 60/55/7 58/56/7 142/57/7 143/58/7
f 41/59/8 37/60/8 103/61/8 43/62/8
f 38/63/9 40/64/9 42/65/9 37/60/9
f 44/66/10 42/65/10 133/67/10 135/68/10
f 43/62/11 103/61/11 104/69/11 45/70/11
f 37/60/12 42/65/12 44/66/12 103/61/12
f 92/71/13 90/72/13 158/73/13 159/74/13
f 45/70/14 104/69/14 105/75/14 47/76/14
f 103/61/15 44/66/15 46/77/15 104/69/15
f 54/78/16 52/79/16 139/80/16 140/81/16
f 47/76/17 105/75/17 106/82/17 49/83/17
f 104/69/18 46/77/18 48/84/18 105/75/18
f 70/85/19 68/86/19 147/87/19 148/88/19
f 49/83/20 106/82/20 107/89/20 51/90/20
f 105/75/21 48/84/21 50/91/21 106/82/21
f 86/92/22 84/93/22 155/94/22 156/95/22
f 51/90/23 107/89/23 108/96/23 53/97/23
f 106/82/24 50/91/24 52/79/24 107/89/24
f 102/98/25 100/99/25 163/100/25 164/101/25
f 53/97/26 108/96/26 109/102/26 55/103/26
f 107/89/27 52/79/27 54/78/27 108/96/27
f 48/84/28 46/77/28 136/104/28 137/105/28
f 55/103/29 109/102/29 110/106/29 57/107/29
f 108/96/30 54/78/30 56/108/30 109/102/30
f 64/109/31 62/110/31 144/111/31 145/112/31
f 57/107/32 110/106/32 111/113/32 59/114/32
f 109/102/33 56/108/33 58/56/33 110/106/33
f 80/115/34 78/116/34 152/117/34 153/118/34
f 59/114/35 111/113/35 112/119/35 61/120/35
f 110/106/36 58/56/36 60/55/36 111/113/36
f 96/121/37 94/122/37 160/123/37 161/124/37
f 61/120/38 112/119/38 113/125/38 63/126/38
f 111/113/39 60/55/39 62/110/39 112/119/39
f 58/56/40 56/108/40 141/127/40 142/57/40
f 63/126/41 113/125/41 114/128/41 65/129/41
f 112/119/42 62/110/42 64/109/42 113/125/42
f 74/130/43 72/131/43 149/132/43 150/133/43
f 65/129/44 114/128/44 115/134/44 67/135/44
f 113/125/45 64/109/45 66/136/45 114/128/45
f 90/72/46 88/137/46 157/138/46 158/73/46
f 67/135/47 115/134/47 116/139/47 69/140/47
f 114/128/48 66/136/48 68/86/48 115/134/48
f 42/65/49 40/64/49 134/141/49 133/67/49
f 69/140/50 116/139/50 117/142/50 71/143/50
f 115/134/51 68/86/51 70/85/51 116/139/51
f 52/79/52 50/91/52 138/144/52 139/80/52
f 71/143/53 117/142/53 118/145/53 73/146/53
f 116/139/54 70/85/54 72/131/54 117/142/54
f 68/86/55 66/136/55 146/147/55 147/87/55
f 73/146/56 118/145/56 119/148/56 75/149/56
f 117/142/57 72/131/57 74/130/57 118/145/57
f 84/93/58 82/150/58 154/151/58 155/94/58
f 75/149/59 119/148/59 120/152/59 77/153/59
f 118/145/60 74/130/60 76/154/60 119/148/60
f 100/99/61 98/155/61 162/156/61 163/100/61
f 77/153/62 120/152/62 121/157/62 79/158/62
f 119/148/63 76/154/63 78/116/63 120/152/63
f 46/77/64 44/66/64 135/68/64 136/104/64
f 79/158/65 121/157/65 122/159/65 81/160/65
f 120/152/66 78/116/66 80/115/66 121/157/66
f 62/110/67 60/55/67 143/58/67 144/111/67
f 81/160/68 122/159/68 123/161/68 83/162/68
f 121/157/69 80/115/69 82/150/69 122/159/69
f 78/116/70 76/154/70 151/163/70 152/117/70
f 83/162/71 123/161/71 124/164/71 85/165/71
f 122/159/72 82/150/72 84/93/72 123/161/72
f 94/166/73 92/71/73 159/74/73 160/167/73
f 85/165/74 124/164/74 125/168/74 87/169/74
f 123/161/75 84/93/75 86/92/75 124/164/75
f 56/108/76 54/78/76 140/81/76 141/127/76
f 87/169/77 125/168/77 126/170/77 89/171/77
f 124/164/78 86/92/78 88/137/78 125/168/78
f 72/131/79 70/85/79 148/88/79 149/132/79
f 89/171/80 126/170/80 127/172/80 91/173/80
f 125/168/81 88/137/81 90/72/81 126/170/81
f 88/137/82 86/92/82 156/95/82 157/138/82
f 91/173/83 127/172/83 128/174/83 93/175/83
f 126/170/84 90/72/84 92/71/84 127/172/84
f 50/91/85 48/84/85 137/105/85 138/144/85
f 93/176/86 128/177/86 129/178/86 95/179/86
f 127/172/87 92/71/87 94/166/87 128/174/87
f 66/136/88 64/109/88 145/112/88 146/147/88
f 95/179/89 129/178/89 130/180/89 97/181/89
f 128/177/90 94/122/90 96/121/90 129/178/90
f 82/150/91 80/115/91 153/118/91 154/151/91
f 97/181/92 130/180/92 131/182/92 99/183/92
f 129/178/93 96/121/93 98/155/93 130/180/93
f 133/184/1 134/185/1 164/186/1 163/187/1 162/188/1 161/124/1 160/123/1 159/189/1 158/190/1 157/191/1 156/192/1 155/193/1 154/194/1 153/195/1 152/196/1 151/197/1 150/198/1 149/199/1 148/200/1 147/201/1 146/202/1 145/203/1 144/204/1 143/205/1 142/206/1 141/207/1 140/208/1 139/209/1 138/210/1 137/211/1 136/212/1 135/213/1
f 99/183/94 131/182/94 132/214/94 101/215/94
f 130/180/95 98/155/95 100/99/95 131/182/95
f 98/155/96 96/121/96 161/124/96 162/156/96
f 101/215/97 132/214/97 38/63/97 39/216/97
f 131/182/98 100/99/98 102/98/98 132/214/98
f 76/154/99 74/130/99 150/133/99 151/163/99
f 39/216/100 38/63/100 37/60/100 41/59/100
f 132/214/101 102/98/101 40/64/101 38/63/101
f 39/217/2 41/218/2 43/219/2 45/220/2 47/221/2 49/222/2 51/223/2 53/224/2 55/225/2 57/226/2 59/227/2 61/228/2 63/229/2 65/230/2 67/231/2 69/232/2 71/233/2 73/234/2 75/235/2 77/236/2 79/237/2 81/238/2 83/239/2 85/240/2 87/241/2 89/242/2 91/243/2 93/176/2 95/179/2 97/244/2 99/245/2 101/246/2
f 40/64/102 102/98/102 164/101/102 134/141/102
f 25/247/1 29/248/1 172/249/1 171/250/1
f 2/251/1 4/252/1 168/253/1 166/254/1
f 1/255/1 25/247/1 171/250/1 165/256/1
f 13/257/1 2/251/1 166/254/1 169/258/1
f 13/257/1 17/259/1 170/260/1 169/258/1
f 1/255/1 3/261/1 167/262/1 165/256/1
